<?xml version="1.0" encoding="utf-8"?>
<!-- Generator: Adobe Illustrator 25.2.3, SVG Export Plug-In . SVG Version: 6.00 Build 0)  -->
<svg version="1.1" id="Слой_1" xmlns="http://www.w3.org/2000/svg" xmlns:xlink="http://www.w3.org/1999/xlink" x="0px" y="0px"
	 viewBox="0 0 512 512" style="enable-background:new 0 0 512 512;" xml:space="preserve">
<style type="text/css">
	.st0{fill:#939598;}
	.st1{fill:#FFFFFF;}
	.st2{opacity:0.1;fill:#FFFFFF;enable-background:new    ;}
	.st3{opacity:0.55;}
	.st4{opacity:0.25;}
</style>
<g>
	<path class="st0" d="M195.3,261.6c-12.5,0-22.6,10.1-22.6,22.6c0,12.5,10.1,22.6,22.6,22.6c12.5,0,22.6-10.1,22.6-22.6c0,0,0,0,0,0
		C217.9,271.7,207.8,261.6,195.3,261.6z M195.3,290.9c-3.7,0-6.8-3-6.8-6.7c0-3.7,3-6.8,6.7-6.8c3.7,0,6.8,3,6.8,6.7c0,0,0,0,0,0
		C202,287.9,199,290.9,195.3,290.9L195.3,290.9z"/>
	<path class="st0" d="M132.9,134.5H87.3c-3.6,0.8-5.9,4.4-5.1,8c0.6,2.5,2.5,4.5,5,5.1h0.1h29.9c1.5,0,2.7,1.2,2.8,2.7
		c1.9,44.7,25.8,85.6,63.8,109.2c13.7-6.3,29.9-0.4,36.2,13.3c0.4,0.9,0.8,1.8,1.1,2.8c11,2.9,22.4,4.3,33.8,4.3
		c4.4,0,8.7-0.2,13.1-0.6c5.7-14,21.6-20.7,35.5-15c2.4,1,4.6,2.3,6.6,3.8c20.3-9.2,38.1-23.2,51.7-40.9l0.7-1.6
		c1.7-4-0.1-8.7-4.2-10.4c-2.7-1.2-5.9-0.7-8.2,1.2l0,0c-39.5,52.7-114.2,63.3-166.9,23.8c-30-22.5-47.7-57.8-47.7-95.3
		c0-2.2,0.1-4.5,0.2-6.7l0,0c0.2-1.6-1-3.1-2.6-3.3C133.2,134.5,133.1,134.5,132.9,134.5L132.9,134.5z"/>
	<path class="st0" d="M293.4,266.7c-12.5,0-22.6,10.1-22.6,22.6c0,12.5,10.1,22.6,22.6,22.6c12.5,0,22.6-10.1,22.6-22.6c0,0,0,0,0,0
		C316,276.8,305.9,266.7,293.4,266.7z M293.4,296.1c-3.7,0-6.8-3-6.8-6.7c0-3.7,3-6.8,6.7-6.8c3.7,0,6.8,3,6.8,6.7c0,0,0,0,0,0
		C300.2,293,297.2,296.1,293.4,296.1L293.4,296.1z"/>
	<path class="st0" d="M93.6,152.9h21.2c1.6,0,3,1.3,3,3v0c0,1.6-1.3,3-3,3H93.6c-1.6,0-3-1.3-3-3v0C90.6,154.2,92,152.9,93.6,152.9z
		"/>
	<path class="st0" d="M99.8,163.6h15.1c1.6,0,3,1.3,3,3v0c0,1.6-1.3,3-3,3H99.8c-1.6,0-3-1.3-3-3v0
		C96.8,164.9,98.1,163.6,99.8,163.6z"/>
	<path class="st1" d="M255,32.9c60.6,0,109.8,50,109.8,111.7S315.6,256.2,255,256.2s-109.8-50-109.8-111.7S194.4,32.9,255,32.9
		 M255,30.2c-62,0-112.5,51.3-112.5,114.4S193,258.9,255,258.9s112.5-51.3,112.5-114.4S317,30.2,255,30.2L255,30.2z"/>
	<g>
		<ellipse class="st0" cx="255" cy="144.6" rx="109.8" ry="111.7"/>
		<path class="st2" d="M274,45.2c0,0-1.4-0.3-3.4-0.6l-1.7-0.2c-8.9-1.2-17.9-1.2-26.8,0l-1.7,0.2c-2,0.3-3.3,0.6-3.4,0.6
			c-2.4,0.5-1.5,0.9-1.5,0.9c1.4,0.1,2.7-0.2,4-0.6l0,0l3.9-0.8c1.4-0.2,1.6-0.1,1.6-0.1c-2.6,0.5-4.7,1.1-4.6,1.5
			c0.1,0.4,1.9-0.2,4-0.8c6-1.4,3.9-0.4,3.9-0.4c-0.8,0.3-1.3,0.7-1.4,1c-0.1,0.8,1.6,0.3,5-1.4l0,0c2.1-0.9,1.8,0.3,1.8,0.3
			c-0.2,0.6,0.2,1.2,1,1.4c0.2,0,0.4,0,0.6,0c0.2,0,0.4,0,0.6,0c0.8-0.2,1.2-0.8,1-1.4c0,0-0.3-1.2,1.8-0.3l0,0
			c3.5,1.7,5.2,2.2,5,1.4c0-0.3-0.6-0.6-1.4-1c0,0-2.1-1.1,3.9,0.4c2.1,0.6,3.9,1.2,4,0.8c0.1-0.4-2-1-4.6-1.5c0,0,0.2-0.1,1.6,0.1
			l3.9,0.8l0,0c1.3,0.5,2.6,0.7,4,0.6C275.6,46.1,276.5,45.7,274,45.2z"/>
		<g class="st3">
			<path class="st1" d="M212,69.3c-8.6,0.5-18.7,14.4-13.4,18.5c5.2,4.1,17.6-7.2,16.8-15.3c0-1.8-1.4-3.2-3.1-3.2
				C212.2,69.3,212.1,69.3,212,69.3"/>
			<path class="st1" d="M232.3,69.3c-9,0.5-16.1,12.3-10.6,17.5c5.5,5.2,17.6-1.4,16.9-11.2C238.4,72.5,236.3,69.3,232.3,69.3"/>
			<path class="st1" d="M255.2,69.3c-9.3,0.5-12.3,11.8-6.4,16.9c5.9,5.1,17,1.4,16.1-7.7C264.4,73.5,260.3,69.6,255.2,69.3"/>
			<path class="st1" d="M278.6,69.3c-8.2,0.4-8.2,10.9-1.9,16.3s15.4,3.1,14.9-4.2C291.1,75.6,284.4,69.3,278.6,69.3"/>
			<path class="st1" d="M299.6,69.3c-6.1,0.4-3.3,9.9,3,15.5c6,5.3,12.5,4.9,12-0.8C313.9,77.6,304.7,69.3,299.6,69.3"/>
			<path class="st1" d="M197.9,97.4c-10.5,0.7-16.2,17.4-10.1,22.9c6.5,5.7,17.7-4.8,16.5-15.7C203.9,100.1,201.5,97.3,197.9,97.4"
				/>
			<path class="st1" d="M314.2,97.4c-9.1,0.6-8.2,14.8-0.6,21.5c6.6,5.8,13.6,2.6,13.3-6C326.5,105.2,320.1,97.4,314.2,97.4"/>
			<path class="st1" d="M190.8,132.1c-10.8,0.7-12.8,18.1-5.4,25c6.9,6.3,16-1.3,15.1-12.7C200,137.4,195.8,132.1,190.8,132.1"/>
			<path class="st1" d="M221.1,132.1c-12.4,0.7-15.5,16.7-7.5,24.2c7.8,7.3,19.3,0.9,19.3-10.5C233,138.3,227.6,132.1,221.1,132.1"
				/>
			<path class="st1" d="M290.2,132.1c-12.6,0.7-16,16.7-7.8,24.2c8.4,7.7,21.2,0.1,20.1-12C301.9,137.5,296.5,132.1,290.2,132.1"/>
			<path class="st1" d="M321.5,132.1c-10.7,0.7-12.9,18.1-5.6,25c6.8,6.3,15.8-1.3,15.1-12.7C330.6,137.4,326.5,132.1,321.5,132.1"
				/>
			<path class="st1" d="M221.9,169.7c-10.9,0.6-12.5,13.8-4.8,20.9c7.7,7,18.4,2.1,17.4-8.4C233.9,175.3,228.2,169.7,221.9,169.7"/>
			<path class="st1" d="M289.4,169.7c-11.9,0.6-16.8,14.9-9.9,21.5c7.1,6.9,20.1-0.7,19.9-11.6c0.1-5.4-4.2-9.9-9.6-10.1
				c-0.2,0-0.3,0-0.5,0"/>
			<path class="st1" d="M226.9,202.5c-8.5,0.5-8.5,9.2-2.4,15.2c6.5,6.3,14.5,4.5,14.4-3.3C238.7,208.3,232.9,202.5,226.9,202.5"/>
			<path class="st1" d="M255.3,202.5c-9.7,0.5-12.3,10.8-6.2,16.5c6.5,6.1,15.7,0.4,15.7-7.5c-0.1-5.1-4.2-9.1-9.3-9
				C255.4,202.5,255.4,202.5,255.3,202.5"/>
			<path class="st1" d="M284.2,202.5c-10.9,0.6-15.2,13-10.1,17.6c5.1,4.6,17.2-3.2,17.1-11.4C291,205,288.2,202.5,284.2,202.5"/>
		</g>
		<g>
			<path class="st1" d="M224.8,97.4c-11.9,0.6-16.5,16.1-9.2,22.2c7.7,6.5,19.8-1.8,18.8-12.8C233.8,101.2,229.9,97.4,224.8,97.4"/>
			<path class="st1" d="M255.3,97.4c-12,0.6-15.4,14.8-7.7,21.5c7.6,6.7,20.1,0.8,19.6-9.6C267,102.8,261.8,97.6,255.3,97.4"/>
			<path class="st1" d="M286.3,97.4c-10.7,0.6-12.7,13.7-5.5,20.7c7.2,7,18.7,3.4,18.9-6.3C299.8,104.3,293.3,97.4,286.3,97.4"/>
			<path class="st1" d="M255.4,132.1c-13.1,0.7-16.6,16.7-8,24.2c8.5,7.5,21.8,0,20.7-12C267.4,137.5,261.8,132.1,255.4,132.1"/>
			<path class="st1" d="M255.4,169.7c-6.7,0.2-12,5.8-11.8,12.5c0.1,3.2,1.4,6.2,3.7,8.4c7.7,7.6,20.5,1.4,19.9-9.7
				C266.8,174.6,261.6,169.7,255.4,169.7"/>
		</g>
		<g class="st4">
			<path class="st1" d="M219,50.6c-3.3,0.7-20.5,10.1-22.1,12.4c0.2,0,0.3,0,1.2-0.5c3.9-2.2,7.7-4.7,11.7-6.9
				c2.9-1.7,5.9-3.1,8.9-4.7C218.8,50.8,218.9,50.7,219,50.6L219,50.6"/>
			<path class="st1" d="M223.1,50.6c-5.6,0.5-22,10.4-20.1,12.3c0.5,0.5,2.8,0,7.7-3c3.1-1.8,12.7-8.2,12.7-9.2
				C223.3,50.6,223.2,50.6,223.1,50.6"/>
			<path class="st1" d="M231.5,50.6c-6.8,0.4-19.1,9.8-15.8,12.1c3.5,2.5,16.9-8.1,16.7-11.5C232.5,50.8,232.1,50.6,231.5,50.6"/>
			<path class="st1" d="M242.6,50.6c-5.7,0.3-13.9,8.3-10.4,11.5c4,3.6,13.4-3.2,12.8-9.2c0-1.3-1-2.3-2.3-2.3
				C242.8,50.6,242.7,50.6,242.6,50.6"/>
			<path class="st1" d="M255.1,50.6c-5.3,0.3-8.1,7.3-4.4,10.7c3.7,3.4,11.2,1.2,10.6-4.5C261.1,53.6,258.1,50.6,255.1,50.6"/>
			<path class="st1" d="M267.9,50.6c-4.3,0.2-2.6,6.1,0.8,9.3c4.9,4.5,11.1,3.9,10.9,0C279.2,55.6,271.6,50.6,267.9,50.6"/>
			<path class="st1" d="M279.4,50.6c-3.4,0.3,4.1,6.8,4.2,6.9c6.2,5.3,12.5,7,12.5,4.3C296.1,57.8,283.4,50.6,279.4,50.6"/>
			<path class="st1" d="M287.3,50.6h-0.2v0.2c0.9,1.2,10.7,7.7,14,9.6c5.9,3.4,6.5,2.6,6.5,2.3C307.9,60,290.8,50.5,287.3,50.6"/>
			<path class="st1" d="M291,50.6c0.5,0.4,1,0.6,1.6,0.9c1.7,0.8,4.2,2.1,7.7,4.1c3.9,2.2,7.7,4.7,11.6,6.9c0.4,0.2,0.8,0.4,1.2,0.6
				C312.6,61.4,294.8,51.4,291,50.6"/>
			<path class="st1" d="M189.3,69.3c-2.7,0.8-16.6,17-16.5,19.3h0.1C174.8,88,189.2,70.3,189.3,69.3L189.3,69.3"/>
			<path class="st1" d="M196.6,69.3c-6.1,0.6-18.7,15.5-15.8,18.8c0.8,0.9,3.7,1,9.5-4.9c3.5-3.5,7.4-9.6,7.5-12.4
				C197.9,69.9,197.5,69.4,196.6,69.3"/>
			<path class="st1" d="M314,69.3c-3.7,0.5,4.4,12.4,10.1,16.9c3.6,2.9,6.2,3.2,6,0.6C329.7,81.1,318,69.3,314,69.3"/>
			<path class="st1" d="M320.7,69.3c-0.2,1,15,18.9,16.4,19.3h0.1C337.2,86.4,323.3,70.2,320.7,69.3"/>
			<path class="st1" d="M167.8,97.4c-2.9,1-10.1,23.4-9.1,24.4c0,0,0.1,0,0.1,0c1.3-0.5,4.5-8.3,5.6-11.3
				C167.1,102.9,168.6,97.4,167.8,97.4"/>
			<path class="st1" d="M177.5,97.4c-8,0.8-14,20.2-9.6,23.8c4.4,3.6,13.6-10.2,12.7-19.6C180.3,98.9,179.2,97.3,177.5,97.4"/>
			<path class="st1" d="M333.3,97.4c-6,0.7-0.5,18.9,5.6,23.4c3.7,2.8,6-0.3,5.1-6.7C342.7,106.2,337.1,97.3,333.3,97.4"/>
			<path class="st1" d="M342.3,97.4c-1.4,0.8,6.9,23.6,9,24.4C353,120.9,344.7,98.3,342.3,97.4"/>
			<path class="st1" d="M157,132.1c-2.1,0.9-1.9,26.4,0.2,27.3C159.3,158.5,159.1,133,157,132.1"/>
			<path class="st1" d="M167.9,132.1c-7.6,0.8-7.9,21.2-2.3,26.2c4.5,4,9.3-3.7,8.7-14C174,137.4,171.2,132.1,167.9,132.1"/>
			<path class="st1" d="M343,132.1c-7.4,0.9-7.2,22.8-1.9,26.7c4.7,3.4,9-7.8,7.2-18.4C347.4,135.4,345.4,132.1,343,132.1"/>
			<path class="st1" d="M353.1,132.1c-2,0.9-2.1,26.4-0.2,27.3C354.9,158.5,355.1,133,353.1,132.1"/>
			<path class="st1" d="M159.2,169.7c-2.2,1.1,7.5,23.3,9.2,24.2c0.8,0.4,0.2-2-0.4-4.2C165.9,182.8,160.9,170.3,159.2,169.7"/>
			<path class="st1" d="M169.9,169.7c-6.6,0.7-1.8,17.4,5.1,22.9c4.1,3.2,6.8,0.6,6.1-5.7C180.2,178.6,174.3,169.7,169.9,169.7"/>
			<path class="st1" d="M192.3,169.7c-9,0.6-8.4,13.8-1,20.9c6.8,6.5,14.1,3.2,13.5-6C204.2,176.9,198.2,169.7,192.3,169.7"/>
			<path class="st1" d="M320,169.7c-10.6,0.7-16.3,17.4-10.1,22.9c6.3,5.4,17.7-5.7,16.5-16.3C326,172.2,323.6,169.7,320,169.7"/>
			<path class="st1" d="M341.1,169.7c-7.4,0.8-13.6,20.1-9.7,23.7s12.5-10.2,12.4-19.1C343.8,171.4,342.7,169.7,341.1,169.7"/>
			<path class="st1" d="M350.9,169.7c-2.1,0.8-10.8,23.5-9.3,24.2C344,193,352.6,170.6,350.9,169.7"/>
			<path class="st1" d="M173.7,202.5L173.7,202.5c-0.1,2.2,14,18.2,16.7,19C190.7,220.4,175.4,203,173.7,202.5"/>
			<path class="st1" d="M182.8,202.5c-4.3,0.5,1.1,9.5,7.9,15.2c4.1,3.4,8.3,5.4,8.1,2.4C198.6,215.1,187.8,202.5,182.8,202.5"/>
			<path class="st1" d="M201.8,202.5c-6.5,0.4-4.3,8.6,1.9,14.4c5.7,5.2,12.4,6.7,12.3,0.7C215.9,211,207.9,202.5,201.8,202.5"/>
			<path class="st1" d="M310.1,202.5c-9.9,0.6-17.2,15.2-13.4,18.4c4.5,3.8,18.2-8.4,17.2-15.4C313.7,203.7,312,202.4,310.1,202.5"
				/>
			<path class="st1" d="M328,202.5c-6.4,0.7-17.9,17.1-15.6,18.9c2.6,2,17.4-11.6,16.9-17.6c0-0.7-0.5-1.2-1.2-1.3
				C328,202.5,328,202.5,328,202.5"/>
			<path class="st1" d="M336.4,202.5c-1.7,0.5-16.6,18.1-16.8,19C321.7,221.6,336.3,205.1,336.4,202.5L336.4,202.5"/>
			<path class="st1" d="M198.2,227.8c0.5,1.6,18.4,11.3,22.3,12.1c-0.5-0.3-1-0.6-1.6-0.8c-1.7-0.8-4.2-2-7.7-4
				c-3.9-2.2-7.8-4.6-11.7-6.7C199,228.1,198.6,227.9,198.2,227.8"/>
			<path class="st1" d="M204.5,227.8c-1.6,0.2,0.6,2.2,1.7,3.1c5.7,4.8,17.6,9.7,18.4,8.9C224.4,238.5,207.6,227.8,204.5,227.8"/>
			<path class="st1" d="M217.8,227.8c-3.4,0.2-1.2,3.4,1.1,5.4c4.7,4.1,14.4,8.2,14.4,6.1C233.3,236.9,223.4,227.8,217.8,227.8"/>
			<path class="st1" d="M235.4,227.8c-4.8,0.3-4.2,4.3-0.6,7.8c3.6,3.5,10.7,6.6,10.6,1.6C245.4,232.7,240.1,227.8,235.4,227.8"/>
			<path class="st1" d="M255.2,227.8c-7,0.4-7.5,7.2-3.6,10.6c4.6,4,10.1-1.2,9.6-5.7C260.7,229.8,258.1,227.7,255.2,227.8"/>
			<path class="st1" d="M275.3,227.8c-7.7,0.4-12.1,9.1-9.7,11.5c2.9,2.8,13.6-4.5,13.3-8.9C278.8,228.8,277.5,227.8,275.3,227.8"/>
			<path class="st1" d="M293.5,227.8c-6.4,0.4-17.2,10.4-15.8,11.8c1.4,1.5,17.4-6,17.5-10.6C295.2,228.2,294.7,227.8,293.5,227.8"
				/>
			<path class="st1" d="M306,227.8c-4.1,0.4-20,11.3-20.2,12c0.9,0.4,7.4-2.2,12.9-5.3c5.2-3,8.3-5.8,7.7-6.5
				C306.3,227.9,306.2,227.8,306,227.8"/>
			<path class="st1" d="M311.9,227.8c-0.4,0.1-0.8,0.3-1.2,0.6c-4.3,2.3-8.5,5-12.8,7.3c-2.7,1.4-5.6,2.6-8.3,4.2
				C291.7,239.9,309.9,230.4,311.9,227.8L311.9,227.8"/>
		</g>
		<path class="st2" d="M246.5,246.1c0,0,0.7,0.1,1.6,0.3l0.8,0.1c4.3,0.6,8.6,0.6,12.9,0l0.8-0.1c0.9-0.1,1.6-0.3,1.6-0.3
			c1.2-0.2,0.7-0.4,0.7-0.4c-0.7,0-1.3,0.1-1.9,0.3l0,0l-1.9,0.4c-0.7,0.1-0.8,0-0.8,0c1.3-0.3,2.3-0.5,2.2-0.7
			c-0.1-0.2-0.9,0.1-1.9,0.4c-2.9,0.7-1.9,0.2-1.9,0.2c0.4-0.2,0.6-0.3,0.7-0.5c0.1-0.4-0.8-0.1-2.4,0.7l0,0c-1,0.5-0.9-0.1-0.9-0.1
			c0.1-0.3-0.1-0.6-0.5-0.7h-0.3h-0.3c-0.4,0.1-0.6,0.4-0.5,0.7c0,0,0.1,0.6-0.9,0.1l0,0c-1.7-0.8-2.5-1-2.4-0.7
			c0,0.1,0.3,0.3,0.6,0.5c0,0,1,0.5-1.9-0.2c-1-0.3-1.9-0.6-1.9-0.4c0,0.2,0.9,0.5,2.2,0.7c0,0-0.1,0.1-0.8,0l-1.9-0.4l0,0
			c-0.6-0.2-1.3-0.3-1.9-0.3C245.9,245.7,245.4,245.9,246.5,246.1z"/>
	</g>
	<g>
		<path class="st0" d="M22.9,367.4H7c-4.8,0-7.4-2.4-7.4-6.9V360c0-4.3,2.6-6.6,7.4-6.6h47.6c4.9,0,7.4,2.3,7.4,6.6v0.5
			c0,4.5-2.5,6.9-7.4,6.9H39v49.5c0,4.8-2.6,7.3-7.2,7.3h-2.3c-4.3,0-6.6-2.5-6.6-7.3V367.4z"/>
		<path class="st0" d="M85.3,369.4c15.8,0,26.5,11,26.5,26.6v1c-0.1,2.6-0.9,4-3.7,4H71.3l0.3,1.8c1.6,7,7.4,11.5,15.2,11.5
			s12.5-3.5,14.9-7.7c0.1-0.2,7.5,0.4,7.5,6.5c0,2.9-2.1,6-5.9,8.3c-3.8,2.3-9.6,4-17,4c-17.3,0-28.6-10.8-28.6-27.6
			C57.8,381.4,69.4,369.4,85.3,369.4z M85.2,380c-7.3,0-12.7,5.2-13.7,12.6h26.1C97.2,384.9,92.5,380,85.2,380L85.2,380z"/>
		<path class="st0" d="M117.7,417.4c0-3.5,1-4.6,3.4-7.3l23.7-27.6h-20.6c-4.1,0-6.1-1.7-6.1-5.5v-0.8c0-3.6,2-5.6,6.1-5.6h34.1
			c4.3,0,5.9,2.6,5.9,5.3v0.8c0,3.3-0.9,4.5-3.3,7.2l-24.4,28h22.5c4.1,0,6.1,1.7,6.1,5.6v0.6c0,3.7-2,5.7-6.1,5.7h-35.5
			c-4.3,0-5.9-2.7-5.9-5.4L117.7,417.4z"/>
		<path class="st0" d="M174.5,360.9c0-5.2,2.9-8.1,7.9-8.1h4.3c5,0,6.5,1.5,8.4,5.7l14.2,33.2l14.4-33.2c1.8-4.5,3.6-5.7,8.2-5.7
			h4.3c5.1,0,8.2,2.9,8.2,8.1v55.9c0,4.8-1.9,7.3-6.4,7.3h-2.4c-4.5,0-6.3-2.5-6.3-7.3v-42l-11.7,28.6c-1.2,2.7-1.9,5-8.2,5
			s-6.8-2.3-8.1-5l-11.7-28.1v41.5c0,4.8-1.7,7.3-6.3,7.3h-2.6c-4.3,0-6.2-2.5-6.2-7.3L174.5,360.9z"/>
		<path class="st0" d="M287.7,392.1h1.7c0-0.5,0-1-0.1-1.5c-0.2-6.2-4-9.6-10.8-9.6c-7.3,0-11.2,3.7-13.1,7.7
			c-0.1,0.2-9.9,1-9.9-6.1c0.1-2.7,1.3-5.2,3.3-7c3.6-3.7,10.4-6.2,20.7-6.2c16.9,0,25,7.7,25,22v31.4c0,0.8-2.9,1.7-5.7,1.7
			c-3.5,0.3-6.8-1.8-8.1-5.1c-0.4-1.2-0.7-2.4-0.9-3.6c-3.7,5.7-10.5,9.1-18.4,9.1c-11.1,0-17.9-6.1-17.9-15.2
			C253.7,397.8,265.2,392.4,287.7,392.1z M289.4,399.8h-2.9c-12.1,0.4-18.5,2.7-18.5,8.7c0,4,3.1,6.5,8.3,6.5
			c7.6,0,13.1-4.7,13.2-11.5L289.4,399.8z"/>
		<path class="st0" d="M353.5,378.4c0,6.1-4.7,8.3-4.9,8.1c-1.9-1.7-4.4-2.6-7-2.6c-7.4,0-10.7,6.5-10.7,17.2v15.9
			c0,5.5-2.9,7.3-6.8,7.3h-1.6c-4.1,0-7-1.6-7-7.3v-45.1c0-0.5,2.6-1.8,5.7-1.8c3.8-0.2,7.2,2.2,8.4,5.7c0.4,1.2,0.6,2.5,0.8,3.7
			c2.1-6.3,6.5-10.1,13.2-10.1C349.8,369.4,353.5,372.9,353.5,378.4z"/>
		<path class="st0" d="M360.6,349.8c0-0.4,2.7-1.7,5.9-1.7c4.5,0,9.5,2.4,9.5,12.3v32.8l14.8-18.3c1.8-2.9,5-4.8,8.5-4.9
			c4.9,0,8.6,4.5,8.2,5.2L390.3,396l19.4,23.2c0.3,0.9-3.6,5.2-8.5,5.2c-3.5,0-6.8-1.9-8.6-4.9l-16.6-19.6v17c0,5.5-2.9,7.3-6.8,7.3
			h-1.6c-4,0-7-1.6-7-7.3L360.6,349.8z"/>
		<path class="st0" d="M441.1,369.4c15.8,0,26.5,11,26.5,26.6v1c-0.1,2.6-0.9,4-3.7,4H427l0.3,1.8c1.6,7,7.4,11.5,15.2,11.5
			c7.8,0,12.5-3.5,14.9-7.7c0.1-0.2,7.5,0.4,7.5,6.5c0,2.9-2.1,6-5.9,8.3c-3.8,2.3-9.6,4-17,4c-17.3,0-28.6-10.8-28.6-27.6
			C413.6,381.4,425.1,369.4,441.1,369.4z M441,380c-7.3,0-12.7,5.2-13.7,12.6h26.1C453,384.9,448.3,380,441,380L441,380z"/>
		<path class="st0" d="M480.8,407v-24.4h-2.7c-4.3,0-6.3-2-6.3-5.4v-0.9c0-3.6,2-5.7,6.2-5.7h2.9v-6.7c0-5,2.5-7.4,6.9-7.4h1.4
			c4,0,6.8,1.8,6.8,7.4v6.7h9.2c4.3,0,6.2,1.9,6.2,5.3v1c0,3.7-2,5.7-6.3,5.7h-9.4v22.6c0,5.2,1.6,7.8,5.9,7.8
			c2.7,0,5.2-1.3,6.6-3.6c0.5-0.2,3.8,2,3.8,6c0,2.2-0.9,4.4-2.6,5.9c-2.4,2.4-6.3,3.9-11.4,3.9C486.3,425.3,480.8,419.1,480.8,407z
			"/>
	</g>
	<g>
		<path class="st0" d="M367.7,455.7c7.6,0,12.7,5.1,12.7,12.6s-5.2,12.6-12.8,12.6s-12.7-5.1-12.7-12.7S360.1,455.7,367.7,455.7z
			 M367.7,461.1c-3.7,0-6.7,3-6.7,6.6c0,0.2,0,0.3,0,0.5c0,4.2,2.8,7.2,6.7,7.2c3.7,0,6.7-3.1,6.6-6.8c0-0.1,0-0.2,0-0.4
			C374.2,464.1,371.5,461.1,367.7,461.1L367.7,461.1z"/>
		<path class="st0" d="M389.3,477.3v-15.1H384c-2.1,0-3.2-0.9-3.2-2.9V459c0-1.9,1.1-2.7,3.2-2.7h17.5c2.1,0,3.1,0.8,3.1,2.7v0.3
			c0,1.9-1,2.9-3.1,2.9h-5.3v15.1c0.2,1.5-0.9,2.9-2.4,3.1c-0.2,0-0.4,0-0.7,0h-1C390.3,480.4,389.3,479.3,389.3,477.3z"/>
		<path class="st0" d="M423.1,454.8h-7.2c-2.2,0-3.3-1.1-3.3-3.1v-0.2c0-2,1.2-3,3.3-3h21.4c2.2,0,3.3,1,3.3,3v0.2
			c0,2-1.1,3.1-3.3,3.1h-7v22.3c0.2,1.6-0.8,3-2.4,3.3c-0.3,0-0.6,0-0.8,0h-1c-2,0-3-1.1-3-3.3L423.1,454.8z"/>
		<path class="st0" d="M438.8,468.2c0.3-7.1,6.3-12.7,13.4-12.4c2.5,0.1,4.9,0.9,6.9,2.3c1.3,1,2.2,2.5,2.4,4.1c0,2.8-3.7,3.3-3.9,3
			c-0.9-2.5-3.3-4.2-6-4c-3.6,0-6.5,2.9-6.5,6.5c0,0.1,0,0.3,0,0.4c0,4.1,2.7,7.1,6.5,7.1c2.7,0.2,5.1-1.4,6-4
			c0.2-0.3,3.9,0.1,3.9,3.1c-0.2,1.6-1,3.1-2.4,4c-2.2,1.7-5,2.6-7.8,2.4C443.9,480.9,438.8,475.7,438.8,468.2z"/>
		<path class="st0" d="M476.4,455.7c6.3-0.3,11.6,4.6,11.9,10.8c0,0.4,0,0.7,0,1.1v0.4c0,1.2-0.4,1.8-1.7,1.8h-16.5l0.2,0.8
			c0.7,3.2,3.6,5.3,6.9,5.1c2.7,0.2,5.3-1.1,6.7-3.5c0-0.1,3.4,0.2,3.4,3c-0.2,1.6-1.2,3-2.6,3.7c-2.3,1.3-5,1.9-7.7,1.8
			c-7.8,0-12.9-4.9-12.9-12.5c-0.3-6.7,4.9-12.4,11.6-12.7C475.9,455.7,476.1,455.7,476.4,455.7z M476.4,460.5
			c-3.2,0-5.9,2.5-6.2,5.7H482C481.7,462.7,479.6,460.5,476.4,460.5L476.4,460.5z"/>
		<path class="st0" d="M492.3,477.1V447c0.7-0.6,1.7-0.9,2.6-0.8c2.1,0,4.3,1.1,4.3,5.5v25.4c0,2.5-1.3,3.3-3,3.3h-0.7
			C493.6,480.4,492.3,479.7,492.3,477.1z"/>
		<path class="st0" d="M504.8,477.1V447c0.7-0.6,1.7-0.9,2.6-0.8c2.1,0,4.3,1.1,4.3,5.5v25.4c0,2.5-1.3,3.3-3,3.3h-0.7
			C506.1,480.4,504.8,479.7,504.8,477.1z"/>
	</g>
</g>
</svg>
